<svg width="728" height="600" viewBox="0 0 528 400" fill="none" xmlns="http://www.w3.org/2000/svg">
<path fill-rule="evenodd" clip-rule="evenodd" d="M470.373 158.185C477.393 154.746 488.775 154.746 495.795 158.185C531.481 175.665 632.311 225.055 667.997 242.535C675.017 245.974 675.017 251.549 667.997 254.987L547.6 313.962C540.58 317.401 529.198 317.401 522.178 313.962C488.752 297.589 399.472 253.857 377.794 243.238C374.705 241.725 372.847 239.713 372.566 237.578C371.765 231.486 370.062 218.529 369.2 211.974C368.868 209.447 370.773 206.972 374.428 205.182L470.373 158.185Z" fill="#003359" fill-opacity="0.1"/>
<path fill-rule="evenodd" clip-rule="evenodd" d="M469.213 150.336C475.272 147.368 485.095 147.368 491.154 150.336L666.837 236.391C672.896 239.358 672.896 244.17 666.837 247.138L542.958 307.817C536.9 310.785 527.077 310.785 521.018 307.818C488.742 292.008 395.066 246.122 374.237 235.92C371.571 234.614 369.967 232.877 369.725 231.034C368.931 224.992 367.085 210.946 366.229 204.433C365.942 202.252 367.586 200.116 370.74 198.571C387.906 190.163 445.027 162.183 469.213 150.336Z" fill="#F7F7F7"/>
<g opacity="0.5">
<path opacity="0.1" fill-rule="evenodd" clip-rule="evenodd" d="M367.339 200.238C371.744 198.08 378.885 198.081 383.29 200.238C389.602 203.33 398.485 207.681 405.468 211.101C411.526 214.069 411.526 218.881 405.468 221.848C396.839 226.075 385.316 231.719 379.38 234.627C377.227 235.681 373.737 235.681 371.583 234.627C371.583 234.627 371.583 234.626 371.583 234.626C370.624 234.157 370.047 233.532 369.96 232.869C369.317 227.978 366.573 207.098 365.914 202.089C365.824 201.4 366.343 200.726 367.339 200.238C367.339 200.238 367.339 200.238 367.339 200.238Z" fill="#5D6A75"/>
</g>
<g opacity="0.2">
<path fill-rule="evenodd" clip-rule="evenodd" d="M558.956 199.329L452.838 251.309C450.555 252.428 446.846 252.427 444.563 251.309C442.28 250.191 442.279 248.374 444.562 247.255L550.681 195.276C552.964 194.157 556.673 194.157 558.956 195.276C561.239 196.394 561.24 198.211 558.956 199.329Z" fill="#5D6A75"/>
<path fill-rule="evenodd" clip-rule="evenodd" d="M543.817 191.419L435.936 244.262C433.932 245.244 430.453 245.133 428.17 244.014C425.887 242.896 425.661 241.192 427.664 240.21L535.545 187.367C537.549 186.386 541.029 186.497 543.312 187.615C545.594 188.733 545.821 190.437 543.817 191.419Z" fill="#5D6A75"/>
<path fill-rule="evenodd" clip-rule="evenodd" d="M527.67 184.005L421.552 235.985C419.268 237.103 415.56 237.103 413.277 235.984C410.994 234.866 410.993 233.049 413.276 231.931L519.394 179.951C521.678 178.832 525.386 178.833 527.67 179.951C529.953 181.07 529.954 182.886 527.67 184.005Z" fill="#5D6A75"/>
<path fill-rule="evenodd" clip-rule="evenodd" d="M505.498 173.466L466.906 192.369C464.622 193.488 460.914 193.488 458.631 192.369C456.347 191.251 456.347 189.434 458.631 188.316L497.223 169.412C499.506 168.293 503.215 168.293 505.498 169.412C507.782 170.531 507.782 172.347 505.498 173.466Z" fill="#5D6A75"/>
</g>
<path fill-rule="evenodd" clip-rule="evenodd" d="M229.419 29.4588C236.439 26.0202 247.821 26.0202 254.841 29.4588C290.527 46.9389 391.357 96.3287 427.043 113.809C434.063 117.247 434.063 122.822 427.043 126.261L306.645 185.236C299.626 188.674 288.244 188.674 281.224 185.236C247.798 168.862 158.518 125.131 136.84 114.512C133.751 112.999 131.893 110.987 131.612 108.851C130.811 102.759 129.108 89.8026 128.246 83.2473C127.914 80.7206 129.819 78.2461 133.474 76.4556L229.419 29.4588Z" fill="#003359" fill-opacity="0.1"/>
<path fill-rule="evenodd" clip-rule="evenodd" d="M228.259 21.6106C234.318 18.6428 244.141 18.6429 250.199 21.6106L425.883 107.666C431.941 110.633 431.942 115.445 425.883 118.413L302.004 179.093C295.945 182.06 286.122 182.06 280.064 179.093C247.788 163.283 154.111 117.397 133.283 107.195C130.617 105.889 129.013 104.152 128.771 102.309C127.976 96.2671 126.13 82.2211 125.274 75.7076C124.987 73.5265 126.631 71.391 129.786 69.8457C146.951 61.4376 204.073 33.4577 228.259 21.6106Z" fill="#F7F7F7"/>
<g opacity="0.5">
<path opacity="0.1" fill-rule="evenodd" clip-rule="evenodd" d="M126.384 71.5139C130.789 69.3564 137.93 69.3565 142.335 71.514C148.647 74.6057 157.53 78.9573 164.513 82.3774C170.571 85.3452 170.571 90.1566 164.513 93.1244C155.884 97.351 144.361 102.995 138.425 105.903C136.272 106.957 132.781 106.957 130.628 105.903C130.628 105.903 130.628 105.903 130.628 105.902C129.669 105.433 129.092 104.808 129.005 104.146C128.362 99.2545 125.617 78.374 124.959 73.365C124.869 72.6764 125.388 72.0021 126.384 71.5141C126.384 71.5141 126.384 71.514 126.384 71.5139Z" fill="#5D6A75"/>
</g>
<g opacity="0.2">
<path fill-rule="evenodd" clip-rule="evenodd" d="M318.002 70.6056L211.884 122.585C209.6 123.704 205.892 123.703 203.608 122.585C201.325 121.467 201.324 119.65 203.608 118.532L309.726 66.5517C312.01 65.4331 315.718 65.4336 318.001 66.5521C320.285 67.6705 320.286 69.4869 318.002 70.6056Z" fill="#5D6A75"/>
<path fill-rule="evenodd" clip-rule="evenodd" d="M302.863 62.6949L194.982 115.538C192.978 116.52 189.498 116.409 187.215 115.291C184.933 114.172 184.706 112.468 186.71 111.487L294.591 58.6432C296.595 57.6616 300.074 57.7726 302.357 58.8908C304.64 60.009 304.866 61.7134 302.863 62.6949Z" fill="#5D6A75"/>
<path fill-rule="evenodd" clip-rule="evenodd" d="M286.715 55.2805L180.597 107.26C178.313 108.379 174.605 108.378 172.322 107.26C170.039 106.142 170.037 104.325 172.321 103.207L278.439 51.2267C280.723 50.1081 284.431 50.1086 286.715 51.227C288.998 52.3455 288.999 54.1619 286.715 55.2805Z" fill="#5D6A75"/>
<path fill-rule="evenodd" clip-rule="evenodd" d="M264.544 44.7417L225.951 63.6454C223.668 64.764 219.96 64.7639 217.676 63.6454C215.393 62.5268 215.392 60.7104 217.676 59.5918L256.268 40.6882C258.552 39.5696 262.26 39.5697 264.544 40.6882C266.827 41.8068 266.827 43.6232 264.544 44.7417Z" fill="#5D6A75"/>
</g>
<path fill-rule="evenodd" clip-rule="evenodd" d="M-16.888 94.5797C-9.86808 91.1411 1.51347 91.1411 8.5336 94.5797C44.2196 112.06 145.05 161.45 180.736 178.93C187.756 182.368 187.756 187.943 180.736 191.382L60.3384 250.356C53.3185 253.795 41.9369 253.795 34.9168 250.356C1.49078 233.983 -87.7889 190.251 -109.468 179.633C-112.556 178.12 -114.415 176.108 -114.695 173.972C-115.496 167.88 -117.199 154.924 -118.061 148.368C-118.393 145.841 -116.488 143.367 -112.833 141.577L-16.888 94.5797Z" fill="#003359" fill-opacity="0.1"/>
<path fill-rule="evenodd" clip-rule="evenodd" d="M-18.0478 86.7319C-11.989 83.7641 -2.16598 83.7642 3.89247 86.7318L179.576 172.787C185.635 175.755 185.635 180.566 179.576 183.534L55.6974 244.214C49.6385 247.182 39.8156 247.182 33.7571 244.214C1.48113 228.404 -92.1952 182.519 -113.024 172.316C-115.69 171.01 -117.294 169.274 -117.536 167.431C-118.33 161.388 -120.176 147.342 -121.033 140.829C-121.319 138.648 -119.676 136.512 -116.521 134.967C-99.3556 126.559 -42.234 98.579 -18.0478 86.7319Z" fill="#F7F7F7"/>
<g opacity="0.2">
<path fill-rule="evenodd" clip-rule="evenodd" d="M71.6953 135.728L-34.423 187.708C-36.7067 188.826 -40.4151 188.826 -42.6983 187.707C-44.9816 186.589 -44.9827 184.772 -42.699 183.654L63.4193 131.674C65.703 130.555 69.4114 130.556 71.6946 131.674C73.9779 132.793 73.979 134.609 71.6953 135.728Z" fill="#5D6A75"/>
<path fill-rule="evenodd" clip-rule="evenodd" d="M56.556 127.817L-51.3251 180.66C-53.3288 181.642 -56.8085 181.531 -59.0912 180.413C-61.374 179.295 -61.6006 177.59 -59.5968 176.609L48.2842 123.765C50.288 122.784 53.7677 122.895 56.0504 124.013C58.3332 125.131 58.5598 126.836 56.556 127.817Z" fill="#5D6A75"/>
<path fill-rule="evenodd" clip-rule="evenodd" d="M40.4091 120.403L-65.7091 172.383C-67.9929 173.501 -71.7012 173.501 -73.9845 172.383C-76.2677 171.264 -76.2689 169.448 -73.9851 168.329L32.1332 116.349C34.4169 115.231 38.1252 115.231 40.4085 116.35C42.6918 117.468 42.6929 119.284 40.4091 120.403Z" fill="#5D6A75"/>
<path fill-rule="evenodd" clip-rule="evenodd" d="M18.237 109.864L-20.3552 128.768C-22.6388 129.886 -26.3471 129.886 -28.6306 128.767C-30.9141 127.649 -30.9143 125.832 -28.6307 124.714L9.96153 105.81C12.2451 104.692 15.9534 104.692 18.2369 105.81C20.5204 106.929 20.5206 108.745 18.237 109.864Z" fill="#5D6A75"/>
</g>
<path fill-rule="evenodd" clip-rule="evenodd" d="M222.279 221.792C229.299 218.353 240.68 218.353 247.701 221.792C283.387 239.272 384.217 288.662 419.903 306.142C426.923 309.58 426.923 315.156 419.903 318.594L299.505 377.569C292.485 381.007 281.104 381.007 274.084 377.569C240.658 361.195 151.378 317.464 129.7 306.845C126.611 305.332 124.753 303.32 124.472 301.185C123.671 295.092 121.968 282.136 121.106 275.58C120.774 273.054 122.679 270.579 126.334 268.789L222.279 221.792Z" fill="#003359" fill-opacity="0.1"/>
<path fill-rule="evenodd" clip-rule="evenodd" d="M221.122 213.943C227.181 210.975 237.004 210.975 243.062 213.943L418.746 299.998C424.805 302.966 424.805 307.777 418.746 310.745L294.867 371.425C288.808 374.393 278.985 374.392 272.927 371.425C240.651 355.615 146.975 309.73 126.146 299.527C123.48 298.221 121.876 296.485 121.634 294.642C120.84 288.599 118.994 274.553 118.137 268.04C117.851 265.859 119.494 263.723 122.649 262.178C139.814 253.77 196.936 225.79 221.122 213.943Z" fill="#F7F7F7"/>
<g opacity="0.5">
<path opacity="0.1" fill-rule="evenodd" clip-rule="evenodd" d="M119.244 263.844C123.649 261.687 130.79 261.687 135.195 263.845C141.506 266.936 150.39 271.288 157.372 274.708C163.431 277.676 163.431 282.487 157.372 285.455C148.744 289.682 137.221 295.326 131.285 298.233C129.132 299.288 125.641 299.288 123.488 298.233C123.488 298.233 123.488 298.233 123.487 298.233C122.529 297.763 121.952 297.139 121.865 296.476C121.222 291.585 118.477 270.705 117.819 265.696C117.728 265.007 118.247 264.333 119.244 263.845C119.244 263.845 119.244 263.845 119.244 263.844Z" fill="#5D6A75"/>
</g>
<g opacity="0.2">
<path fill-rule="evenodd" clip-rule="evenodd" d="M310.863 262.938L204.745 314.917C202.461 316.036 198.753 316.035 196.469 314.917C194.186 313.799 194.185 311.982 196.469 310.863L302.587 258.884C304.871 257.765 308.579 257.766 310.862 258.884C313.145 260.002 313.146 261.819 310.863 262.938Z" fill="#5D6A75"/>
<path fill-rule="evenodd" clip-rule="evenodd" d="M295.724 255.027L187.842 307.87C185.839 308.852 182.359 308.741 180.076 307.622C177.793 306.504 177.567 304.8 179.571 303.818L287.452 250.975C289.456 249.993 292.935 250.104 295.218 251.223C297.501 252.341 297.727 254.045 295.724 255.027Z" fill="#5D6A75"/>
<path fill-rule="evenodd" clip-rule="evenodd" d="M279.577 247.613L173.459 299.593C171.175 300.711 167.466 300.711 165.183 299.592C162.9 298.474 162.899 296.657 165.183 295.539L271.301 243.559C273.584 242.44 277.293 242.441 279.576 243.559C281.859 244.678 281.86 246.494 279.577 247.613Z" fill="#5D6A75"/>
<path fill-rule="evenodd" clip-rule="evenodd" d="M257.405 237.073L218.813 255.977C216.529 257.096 212.821 257.096 210.537 255.977C208.254 254.859 208.254 253.042 210.537 251.924L249.13 233.02C251.413 231.901 255.121 231.901 257.405 233.02C259.688 234.138 259.689 235.955 257.405 237.073Z" fill="#5D6A75"/>
</g>
</svg>
