<svg width="172" height="172" viewBox="0 0 172 172" fill="none" xmlns="http://www.w3.org/2000/svg">
<path fill-rule="evenodd" clip-rule="evenodd" d="M63.9641 25.8668C59.9677 25.8668 56.728 29.1064 56.728 33.1029C56.728 53.4185 56.728 110.82 56.728 131.136C56.728 135.132 59.9677 138.372 63.9641 138.372H132.505C136.501 138.372 139.741 135.132 139.741 131.136C139.741 112.107 139.741 61.2808 139.741 48.9395C139.741 47.1811 139.101 45.4829 137.94 44.1622C134.628 40.394 127.583 32.3801 124.019 28.3254C122.646 26.7625 120.665 25.8668 118.585 25.8668H63.9641Z" fill="#003359" fill-opacity="0.1"/>
<path fill-rule="evenodd" clip-rule="evenodd" d="M59.7331 20.9757C56.2838 20.9757 53.4879 23.7719 53.4879 27.2209V127.236C53.4879 130.685 56.2838 133.481 59.7331 133.481H130.256C133.705 133.481 136.501 130.685 136.501 127.236C136.501 108.861 136.501 55.5325 136.501 43.6749C136.501 42.1572 135.948 40.6916 134.947 39.5517C131.661 35.8144 124.025 27.1267 120.483 23.0979C119.297 21.7488 117.589 20.9757 115.793 20.9757C106.021 20.9757 73.502 20.9757 59.7331 20.9757Z" fill="#F7F7F7"/>
<g opacity="0.5">
<path opacity="0.1" fill-rule="evenodd" clip-rule="evenodd" d="M117.729 20.9757C115.222 20.9757 113.189 23.0085 113.189 25.516C113.189 29.1092 113.189 34.1666 113.189 38.1416C113.189 41.5908 115.985 44.3867 119.434 44.3867C124.346 44.3867 130.907 44.3867 134.286 44.3867C135.511 44.3867 136.505 43.3931 136.505 42.1673C136.505 42.1673 136.505 42.1671 136.505 42.1669C136.505 41.6213 136.306 41.0941 135.946 40.6842C133.287 37.659 121.934 24.7439 119.211 21.6456C118.836 21.2198 118.297 20.9757 117.729 20.9757C117.729 20.9757 117.729 20.9757 117.729 20.9757Z" fill="#003359"/>
</g>
<g opacity="0.2">
<path fill-rule="evenodd" clip-rule="evenodd" d="M62.6603 74.9922H123.072C124.372 74.9922 125.427 73.9364 125.427 72.6365C125.427 71.3367 124.372 70.2808 123.072 70.2808H62.6603C61.3602 70.2808 60.305 71.3367 60.305 72.6365C60.305 73.9364 61.3602 74.9922 62.6603 74.9922Z" fill="#0066B2"/>
<path fill-rule="evenodd" clip-rule="evenodd" d="M62.3717 66.0857H123.787C124.928 66.0857 125.854 65.0308 125.854 63.7312C125.854 62.4317 124.928 61.3767 123.787 61.3767H62.3717C61.231 61.3767 60.305 62.4317 60.305 63.7312C60.305 65.0308 61.231 66.0857 62.3717 66.0857Z" fill="#0066B2"/>
<path fill-rule="evenodd" clip-rule="evenodd" d="M62.6603 57.1815H123.072C124.372 57.1815 125.427 56.1256 125.427 54.8258C125.427 53.526 124.372 52.4701 123.072 52.4701H62.6603C61.3602 52.4701 60.305 53.526 60.305 54.8258C60.305 56.1256 61.3602 57.1815 62.6603 57.1815Z" fill="#0066B2"/>
<path fill-rule="evenodd" clip-rule="evenodd" d="M62.8474 44.7454H84.8175C86.1175 44.7454 87.173 43.6898 87.173 42.3899C87.173 41.0899 86.1175 40.0343 84.8175 40.0343H62.8474C61.5474 40.0343 60.4919 41.0899 60.4919 42.3899C60.4919 43.6898 61.5474 44.7454 62.8474 44.7454Z" fill="#0066B2"/>
</g>
<g opacity="0.6">
<path d="M113.547 121.987C118.902 121.987 123.243 117.646 123.243 112.291C123.243 106.936 118.902 102.594 113.547 102.594C108.192 102.594 103.85 106.936 103.85 112.291C103.85 117.646 108.192 121.987 113.547 121.987Z" fill="#0066B2"/>
<path d="M112.112 114.159L110.292 112.34C110.194 112.241 110.061 112.186 109.923 112.186C109.784 112.186 109.651 112.241 109.553 112.34C109.349 112.544 109.349 112.874 109.553 113.079L111.745 115.271C111.95 115.475 112.28 115.475 112.484 115.271L118.032 109.723C118.237 109.518 118.237 109.188 118.032 108.983C117.934 108.885 117.801 108.83 117.663 108.83C117.524 108.83 117.391 108.885 117.293 108.983L112.112 114.159Z" fill="#F7F7F7"/>
</g>
<path fill-rule="evenodd" clip-rule="evenodd" d="M42.4641 38.0199C38.4677 38.0199 35.228 41.2596 35.228 45.256C35.228 65.5716 35.228 122.973 35.228 143.289C35.228 147.285 38.4677 150.525 42.4641 150.525H111.005C115.001 150.525 118.241 147.285 118.241 143.289C118.241 124.26 118.241 73.434 118.241 61.0926C118.241 59.3342 117.601 57.6361 116.44 56.3153C113.128 52.5471 106.083 44.5332 102.519 40.4785C101.146 38.9157 99.1654 38.0199 97.0846 38.0199H42.4641Z" fill="#003359" fill-opacity="0.1"/>
<path fill-rule="evenodd" clip-rule="evenodd" d="M38.2331 33.1288C34.7838 33.1288 31.9879 35.925 31.9879 39.374V139.389C31.9879 142.838 34.7838 145.634 38.2331 145.634H108.756C112.205 145.634 115.001 142.838 115.001 139.389C115.001 121.014 115.001 67.6856 115.001 55.828C115.001 54.3103 114.448 52.8447 113.447 51.7048C110.161 47.9675 102.525 39.2798 98.9833 35.251C97.7974 33.9019 96.0886 33.1288 94.2926 33.1288C84.5206 33.1288 52.002 33.1288 38.2331 33.1288Z" fill="#F7F7F7"/>
<g opacity="0.5">
<path opacity="0.1" fill-rule="evenodd" clip-rule="evenodd" d="M96.2293 33.1288C93.7219 33.1288 91.6891 35.1616 91.6891 37.6691C91.6891 41.2623 91.6891 46.3198 91.6891 50.2947C91.6891 53.7439 94.4851 56.5398 97.9343 56.5398C102.846 56.5398 109.406 56.5398 112.786 56.5398C114.011 56.5398 115.005 55.5462 115.005 54.3204C115.005 54.3204 115.005 54.3202 115.005 54.32C115.005 53.7744 114.806 53.2473 114.446 52.8373C111.787 49.8121 100.434 36.897 97.7107 33.7987C97.3362 33.3729 96.7967 33.1288 96.2295 33.1288C96.2295 33.1288 96.2295 33.1288 96.2293 33.1288Z" fill="#003359"/>
</g>
<g opacity="0.2">
<path fill-rule="evenodd" clip-rule="evenodd" d="M41.1603 87.1454H101.572C102.872 87.1454 103.927 86.0895 103.927 84.7897C103.927 83.4899 102.872 82.434 101.572 82.434H41.1603C39.8602 82.434 38.805 83.4899 38.805 84.7897C38.805 86.0895 39.8602 87.1454 41.1603 87.1454Z" fill="#0066B2"/>
<path fill-rule="evenodd" clip-rule="evenodd" d="M40.8717 78.2389H102.287C103.428 78.2389 104.354 77.1839 104.354 75.8844C104.354 74.5848 103.428 73.5298 102.287 73.5298H40.8717C39.731 73.5298 38.805 74.5848 38.805 75.8844C38.805 77.1839 39.731 78.2389 40.8717 78.2389Z" fill="#0066B2"/>
<path fill-rule="evenodd" clip-rule="evenodd" d="M41.1603 69.3346H101.572C102.872 69.3346 103.927 68.2788 103.927 66.9789C103.927 65.6791 102.872 64.6232 101.572 64.6232H41.1603C39.8602 64.6232 38.805 65.6791 38.805 66.9789C38.805 68.2788 39.8602 69.3346 41.1603 69.3346Z" fill="#0066B2"/>
<path fill-rule="evenodd" clip-rule="evenodd" d="M41.3474 56.8986H63.3175C64.6175 56.8986 65.673 55.843 65.673 54.543C65.673 53.243 64.6175 52.1874 63.3175 52.1874H41.3474C40.0474 52.1874 38.9919 53.243 38.9919 54.543C38.9919 55.843 40.0474 56.8986 41.3474 56.8986Z" fill="#0066B2"/>
</g>
<g opacity="0.6">
<path d="M92.0468 134.14C97.402 134.14 101.743 129.799 101.743 124.444C101.743 119.089 97.402 114.747 92.0468 114.747C86.6916 114.747 82.3504 119.089 82.3504 124.444C82.3504 129.799 86.6916 134.14 92.0468 134.14Z" fill="#0066B2"/>
<path d="M90.6121 126.312L88.7924 124.493C88.6945 124.395 88.5614 124.339 88.4227 124.339C88.284 124.339 88.151 124.395 88.053 124.493C87.8485 124.697 87.8485 125.028 88.053 125.232L90.245 127.424C90.4495 127.629 90.7799 127.629 90.9844 127.424L96.5324 121.876C96.7369 121.672 96.7369 121.341 96.5324 121.137C96.4345 121.038 96.3014 120.983 96.1627 120.983C96.024 120.983 95.891 121.038 95.793 121.137L90.6121 126.312Z" fill="#F7F7F7"/>
</g>
</svg>
