<svg width="32" height="24" viewBox="0 0 32 24" fill="none" xmlns="http://www.w3.org/2000/svg">
  <path fill-rule="evenodd" clip-rule="evenodd" d="M20.6653 22.2515L29.4426 14.7819L29.6129 14.607L29.7541 14.4552L29.8916 14.2999L30.0254 14.1417L30.1551 13.98L30.2816 13.8152L30.4038 13.6473L30.5222 13.4764L30.6367 13.3027L30.747 13.1259L30.853 12.9462L30.955 12.7638L31.0529 12.5787L31.1461 12.391L31.2349 12.2009L31.3195 12.008L31.3993 11.8129L31.4744 11.6152L31.5448 11.4155L31.6105 11.2135L31.6713 11.0096L31.7272 10.8034L31.7783 10.5953L31.824 10.385L31.8646 10.1732L31.9002 9.95947L31.9304 9.74425L31.9554 9.52732L31.9748 9.3093L31.9885 9.08951L31.9972 8.86845L32 8.64609L31.9972 8.42367L31.9885 8.20262L31.9748 7.98306L31.9554 7.76463L31.9304 7.54769L31.9002 7.33266L31.8646 7.11894L31.824 6.90712L31.7783 6.69697L31.7272 6.48896L31.6713 6.28298L31.6105 6.07867L31.5448 5.87668L31.4746 5.6769L31.3993 5.47938L31.3195 5.284L31.2349 5.09124L31.1461 4.9011L31.0529 4.71341L30.955 4.52834L30.853 4.34595L30.747 4.16636L30.6367 3.98981L30.5222 3.8157L30.4036 3.64485L30.2816 3.47694L30.1553 3.31229L30.0254 3.15063L29.8916 2.99201L29.7541 2.83695L29.6131 2.68548L29.4685 2.53681L29.3204 2.39177L29.1688 2.2507L29.0141 2.11299L28.856 1.9789L28.6944 1.84852L28.5301 1.72217L28.3627 1.59976L28.1922 1.48111L28.0186 1.36621L27.842 1.25571L27.6628 1.14932L27.4807 1.04724L27.2961 0.949364L27.1089 0.85579L26.9192 0.76697L26.7266 0.682269L26.5316 0.602095L26.3344 0.527037L26.1353 0.45628L25.9337 0.390456L25.7298 0.329523L25.524 0.273523L25.3164 0.222594L25.1066 0.176554L24.8952 0.135811L24.6822 0.100183L24.4672 0.0699879L24.2509 0.0450892L24.0329 0.0254872L23.8139 0.0114987L23.5933 0.00321419L23.3659 0.000181081L22.98 0.00905406L22.5929 0.0350845L22.2105 0.0782724L21.8329 0.138256L21.4607 0.214264L21.0944 0.306344L20.7342 0.414042L20.3809 0.536634L20.0349 0.673984L19.6966 0.825821L19.3656 0.991239L19.0431 1.17024L18.7293 1.36264L18.4247 1.56785L18.1292 1.78514L17.8438 2.01453L17.5681 2.25559L17.3031 2.50798L17.0486 2.77113L16.8057 3.04502C16.1382 3.76386 15.722 3.65463 15.1943 3.04502L14.9512 2.77113L14.6969 2.50798L14.4318 2.25559L14.1562 2.01453L13.8706 1.78514L13.5753 1.56785L13.2705 1.36264L12.9569 1.17042L12.6344 0.99142L12.3036 0.825821L11.9651 0.673984L11.6189 0.536634L11.2656 0.414042L10.9056 0.306344L10.5393 0.214264L10.1671 0.138256L9.78965 0.0782724L9.4071 0.0350845L9.02008 0.00905406L8.62718 0L8.18649 0.0113176L7.74936 0.0447271L7.31806 0.0999569L6.89335 0.176192L6.47597 0.273116L6.06653 0.390275L5.66537 0.52663L5.27342 0.681907L4.89105 0.855609L4.51908 1.04706L4.15799 1.25548L3.80783 1.4807L3.46974 1.72199L3.14403 1.97849L2.83097 2.2503L2.53128 2.53645L2.24587 2.83695L1.9746 3.15045L1.71838 3.47676L1.47761 3.81552L1.25283 4.16636L1.04463 4.52834L0.853924 4.90087L0.680339 5.284L0.525412 5.67672L0.389101 6.07867L0.272398 6.48896L0.175844 6.90712L0.0995786 7.33266L0.0444119 7.76463L0.0111133 8.2028L0 8.63889L0.00280177 8.86845L0.0114746 9.08951L0.0252104 9.30907L0.04482 9.52732L0.0696692 9.74444L0.0999399 9.95947L0.135362 10.1732L0.176026 10.385L0.22193 10.5953L0.272759 10.8034L0.328692 11.0096L0.389506 11.2135L0.455381 11.4155L0.525773 11.6152L0.600728 11.8129L0.680747 12.008L0.765236 12.2009L0.854106 12.3911L0.947315 12.5787L1.045 12.7638L1.14702 12.9462L1.25301 13.1259L1.36353 13.3027L1.47779 13.4764L1.59639 13.6473L1.71856 13.8152L1.84489 13.9801L1.9746 14.1417L2.10847 14.2999L2.24605 14.4552L2.38706 14.6071L2.55595 14.7804L8.5895 19.9761C9.17234 20.2894 9.6176 20.4665 10.4184 19.8906L11.858 18.5978C12.2353 18.1132 12.3164 17.5828 11.7465 16.9521L5.55842 11.5741L5.48989 11.5002L5.42157 11.4232L5.35511 11.3447L5.29073 11.2642L5.22824 11.1827L5.16761 11.0995L5.10887 11.015L5.0524 10.929L4.998 10.8419L4.94563 10.7534L4.89557 10.6638L4.84759 10.5727L4.80146 10.4803L4.75795 10.3871L4.71674 10.2926L4.67757 10.1971L4.64088 10.1008L4.60641 10.0031L4.57442 9.9046L4.54487 9.80537L4.51754 9.70482L4.49251 9.60297L4.47033 9.50034L4.45053 9.39735L4.43323 9.29323L4.41837 9.18761L4.40612 9.08123L4.39668 8.9743L4.38954 8.86565L4.38561 8.75623L4.38448 8.66664L4.39067 8.4263L4.40685 8.21072L4.43395 7.99908L4.47105 7.79138L4.51831 7.58767L4.57537 7.38757L4.64161 7.19137L4.71747 6.99956L4.80218 6.81205L4.89616 6.62889L4.99872 6.45048L5.10964 6.2775L5.2286 6.11L5.35588 5.94798L5.49047 5.79252L5.63203 5.64353L5.78094 5.50147L5.93605 5.36661L6.09775 5.23909L6.26493 5.11971L6.43756 5.0088L6.61567 4.90581L6.79865 4.81187L6.98538 4.72699L7.17704 4.65098L7.37281 4.58439L7.57256 4.52739L7.77606 4.48027L7.98317 4.44292L8.19439 4.41576L8.40954 4.39932L8.63355 4.39367L8.82277 4.39801L9.0133 4.41082L9.20117 4.43196C11.1726 4.75112 12.5591 5.76839 13.602 6.92446C14.6862 8.01248 16.0864 9.46715 18.3858 7.0863C19.4848 5.8774 20.7311 4.926 22.4333 4.49837L22.6145 4.46139L22.7988 4.43196L22.9867 4.41082L23.1774 4.39801L23.387 4.3933L23.4812 4.39443L23.5905 4.3986L23.6987 4.40557L23.8057 4.41499L23.9116 4.42726L24.0169 4.44215L24.1208 4.45931L24.2238 4.47932L24.3261 4.50177L24.4276 4.52667L24.5283 4.55401L24.6274 4.58362L24.7253 4.61567L24.823 4.65021L24.9195 4.6872L25.0144 4.72604L25.1089 4.76755L25.2017 4.81128L25.2938 4.85732L25.3845 4.9054L25.474 4.95542L25.5626 5.00803L25.6502 5.06294L25.7354 5.11912L25.8198 5.17779L25.9028 5.23873L25.9845 5.30133L26.0645 5.36603L26.1428 5.43244L26.2196 5.50071L26.2953 5.57146L26.3686 5.64294L26.4401 5.71633L26.5103 5.79197L26.5784 5.86911L26.6449 5.94739L26.7093 6.02774L26.772 6.10941L26.8328 6.19298L26.8911 6.27709L26.9474 6.36292L27.002 6.45025L27.0544 6.53893L27.1046 6.62871L27.1528 6.71961L27.1985 6.81205L27.2422 6.90544L27.2833 6.99938L27.3222 7.09499L27.3593 7.19155L27.3936 7.28911L27.4256 7.38735L27.4552 7.48676L27.4826 7.58749L27.5075 7.68934L27.5297 7.79138L27.5495 7.89478L27.567 7.99926L27.5817 8.10452L27.5941 8.21072L27.6033 8.31788L27.6105 8.4263L27.6144 8.5359L27.6159 8.64609L27.6144 8.75623L27.6105 8.86565L27.6033 8.97407L27.5941 9.08123L27.5817 9.18761L27.5668 9.29305L27.5495 9.39735L27.5297 9.50056L27.5073 9.60278L27.4826 9.70446L27.4552 9.80537L27.4256 9.90478L27.3936 10.0031L27.3593 10.1008L27.3224 10.1973L27.2833 10.2928L27.2422 10.3871L27.1985 10.4803L27.1526 10.5727L27.1046 10.6636L27.0544 10.7532L27.002 10.8419L26.9476 10.929L26.8911 11.015L26.8324 11.0995L26.772 11.1827L26.7095 11.2642L26.6449 11.3446L26.5787 11.4232L26.5105 11.4998L26.4425 11.5732L15.1681 21.4036C14.0433 22.2683 14.853 23.4202 15.5316 23.4366L18.3975 23.428C19.5078 23.471 19.7465 23.0024 20.6653 22.2515Z" fill="#E62229"/>
  </svg>
